<?xml version="1.0" encoding="UTF-8"?>
<svg xmlns="http://www.w3.org/2000/svg" height="296" width="296" class="pyqrcode"><path transform="scale(8)" stroke="#000" class="pyqrline" d="M4 4.5h7m2 0h3m1 0h1m1 0h5m2 0h7m-29 1h1m5 0h1m4 0h1m4 0h2m2 0h1m1 0h1m5 0h1m-29 1h1m1 0h3m1 0h1m1 0h1m3 0h1m1 0h2m2 0h1m1 0h1m1 0h1m1 0h3m1 0h1m-29 1h1m1 0h3m1 0h1m1 0h1m1 0h3m1 0h4m1 0h1m2 0h1m1 0h3m1 0h1m-29 1h1m1 0h3m1 0h1m4 0h4m2 0h3m2 0h1m1 0h3m1 0h1m-29 1h1m5 0h1m3 0h1m1 0h2m2 0h3m1 0h1m1 0h1m5 0h1m-29 1h7m1 0h1m1 0h1m1 0h1m1 0h1m1 0h1m1 0h1m1 0h1m1 0h7m-18 1h2m1 0h2m3 0h1m-17 1h2m1 0h2m3 0h1m1 0h2m1 0h1m1 0h3m4 0h2m-27 1h1m6 0h3m3 0h1m1 0h1m1 0h1m2 0h1m1 0h1m1 0h4m-28 1h3m1 0h1m1 0h8m1 0h2m1 0h1m2 0h5m-18 1h2m1 0h2m3 0h1m1 0h1m5 0h2m2 0h1m-29 1h1m2 0h1m2 0h1m2 0h2m1 0h1m4 0h1m1 0h4m4 0h1m-25 1h2m3 0h1m1 0h1m1 0h1m1 0h1m2 0h1m4 0h1m1 0h1m1 0h3m-29 1h1m3 0h1m1 0h1m1 0h3m1 0h1m2 0h3m1 0h1m3 0h1m1 0h1m2 0h1m-29 1h1m1 0h1m2 0h1m1 0h11m6 0h5m-29 1h2m1 0h5m2 0h7m3 0h1m1 0h1m2 0h1m-26 1h2m7 0h2m2 0h1m1 0h4m1 0h1m1 0h1m1 0h1m-25 1h3m1 0h6m1 0h4m1 0h1m1 0h1m1 0h1m3 0h1m3 0h1m-29 1h5m2 0h2m1 0h1m1 0h1m2 0h1m2 0h1m2 0h2m2 0h2m1 0h1m-29 1h3m1 0h6m1 0h7m2 0h9m-21 1h1m3 0h4m1 0h1m2 0h1m3 0h3m-27 1h7m1 0h1m4 0h1m2 0h1m2 0h2m1 0h1m1 0h1m1 0h1m-27 1h1m5 0h1m2 0h1m1 0h1m1 0h2m1 0h1m2 0h2m3 0h2m-26 1h1m1 0h3m1 0h1m1 0h2m1 0h3m1 0h2m1 0h7m-25 1h1m1 0h3m1 0h1m1 0h3m2 0h3m7 0h1m3 0h1m-28 1h1m1 0h3m1 0h1m3 0h4m3 0h1m2 0h2m1 0h6m-29 1h1m5 0h1m2 0h1m2 0h1m1 0h1m2 0h1m1 0h2m1 0h1m1 0h3m1 0h1m-29 1h7m2 0h1m1 0h1m2 0h3m3 0h1m2 0h2"/></svg>
